<svg xmlns="http://www.w3.org/2000/svg" width="32" height="36" viewBox="0 0 32 36" fill="none">
<path d="M29.0849 20.4719C29.7037 20.4719 30.2053 21.0357 30.2053 21.7312L30.2047 32.3051C30.2472 33.7671 30.0912 34.725 29.5099 35.3279C28.9692 35.8887 28.1862 36.0499 27.1691 35.9873L5.02974 35.9859C4.00217 35.9311 3.20163 35.4592 2.82893 34.5132C2.58267 33.8882 2.46774 33.1511 2.46774 32.3024V21.7312C2.46774 21.0357 2.96939 20.4719 3.58821 20.4719C4.20703 20.4719 4.70868 21.0357 4.70868 21.7312V32.3024C4.70868 32.7197 4.7483 33.0572 4.81914 33.3151L4.8768 33.4908L4.87232 33.4713C4.87401 33.4498 4.91898 33.459 5.08286 33.4689L27.2286 33.4706C27.6191 33.494 27.8691 33.4684 27.957 33.4673L27.9632 33.4656C27.9429 33.37 27.9823 32.9792 27.9644 32.3462V21.7312C27.9644 21.0357 28.4661 20.4719 29.0849 20.4719ZM16.6948 0C17.1168 0 17.4937 0.186566 17.85 0.534804L31.649 15.1845C32.0988 15.6621 32.119 16.4591 31.694 16.9646C31.2691 17.4702 30.5599 17.4928 30.1101 17.0153L16.6429 2.71617L1.85231 17.0534C1.38372 17.5076 0.676206 17.449 0.27203 16.9223C-0.132147 16.3957 -0.0799291 15.6006 0.388661 15.1464L15.5016 0.496644L15.6397 0.382312C15.9831 0.141112 16.3241 0 16.6948 0Z" fill="#555555"/>
</svg>